<svg id="Layer_1" data-name="Layer 1" xmlns="http://www.w3.org/2000/svg" viewBox="0 0 1000 1000"><defs><style>.cls-1{fill:#fff;}.cls-2,.cls-3{fill:#4b0066;}.cls-3{font-size:324.9px;font-family:Oswald-Regular, Oswald;}.cls-4,.cls-5{font-size:260.1px;}.cls-5{letter-spacing:-0.03em;}</style></defs><title>WeWatch-margin</title><rect class="cls-1" x="0.5" y="0.5" width="999" height="999"/><path d="M999,1V999H1V1H999m1-1H0V1000H1000V0Z"/><path class="cls-2" d="M929.89,70.5a.6.6,0,0,1,.6.61V536.59a.6.6,0,0,1-.6.61H71.11a.61.61,0,0,1-.61-.61V71.11a.61.61,0,0,1,.61-.61H929.89m0-20H71.11A20.61,20.61,0,0,0,50.5,71.11V536.59A20.61,20.61,0,0,0,71.11,557.2H929.89a20.6,20.6,0,0,0,20.6-20.61V71.11a20.6,20.6,0,0,0-20.6-20.61Z"/><path class="cls-2" d="M478,814.6c0,57.92-23.83,135.9-77.85,135.9H240.84c-54,0-77.84-78-77.84-135.9a157.5,157.5,0,1,1,315,0Z"/><path class="cls-2" d="M838,814.6c0,56.11-24.49,135.92-77.85,135.9H607.06c-4.25,0-83.93-51-84.06-135.88-.12-77.15,66-157.5,157.5-157.5A157.5,157.5,0,0,1,838,814.6Z"/><path class="cls-2" d="M60.5,940.5V833.1a40,40,0,0,1,40-40h800a40,40,0,0,1,40,40V940.5Z"/><path class="cls-1" d="M900.49,803.1a30,30,0,0,1,30,30v97.39H70.5V833.1a30,30,0,0,1,30-30h800m0-20h-800a50,50,0,0,0-50,50V950.49h900V833.1a50,50,0,0,0-50-50Z"/><circle class="cls-2" cx="320.5" cy="586.9" r="107" transform="translate(-321.13 398.52) rotate(-45)"/><path class="cls-1" d="M320.5,489.9a97,97,0,1,1-97,97,97.11,97.11,0,0,1,97-97m0-20a117,117,0,1,0,117,117,117,117,0,0,0-117-117Z"/><circle class="cls-2" cx="680.5" cy="586.9" r="107" transform="translate(-215.69 653.08) rotate(-45)"/><path class="cls-1" d="M680.5,489.9a97,97,0,1,1-97,97,97.11,97.11,0,0,1,97-97m0-20a117,117,0,1,0,117,117,117,117,0,0,0-117-117Z"/><text/><text class="cls-3" transform="translate(152.05 434.27) scale(0.64 1)">W<tspan class="cls-4" x="236.85" y="0">E</tspan><tspan x="342.71" y="0">W</tspan><tspan class="cls-5" x="579.55" y="0">A</tspan><tspan class="cls-4" x="699.2" y="0">TCH</tspan></text></svg>