<svg id="Layer_1" data-name="Layer 1" xmlns="http://www.w3.org/2000/svg" viewBox="0 0 900 879.56"><defs><style>.cls-1,.cls-3,.cls-4{fill:#4b0066;}.cls-2{opacity:0;}.cls-3{font-size:208.4px;}.cls-3,.cls-4{font-family:Oswald-Regular, Oswald;}.cls-4{font-size:166.83px;}</style></defs><title>WeWatch-margin-transparent</title><path class="cls-1" d="M228.63,555.76c-.17.47-.33,1-.48,1.44h0c.15-.48.31-1,.48-1.44m0-.07,0,0,0,0m0-.07v0m0-.08,0,.05,0-.05m0-.07v0m0-.09h0m0-.09v0m0-.07h0m7.43-16.34v0m0-.08v0m.05-.07,0,0,0,0m0-.07,0,0,0,0m.18-.32-.18.3.18-.3m.67-1.14h0c-.22.38-.45.75-.67,1.14l.67-1.14m337.33,0H426.45a115.93,115.93,0,0,1,7.24,20H567.3a116,116,0,0,1,7.25-20M929.89,50.5H71.11A20.61,20.61,0,0,0,50.5,71.11V536.59A20.61,20.61,0,0,0,71.11,557.2H207.19l.05-.19h.11a117.09,117.09,0,0,1,7.17-19.75l0-.06H71.11a.61.61,0,0,1-.61-.61V71.11a.61.61,0,0,1,.61-.61H929.89a.61.61,0,0,1,.61.61V536.59a.61.61,0,0,1-.61.61H786.45a115.93,115.93,0,0,1,7.24,20h136.2a20.61,20.61,0,0,0,20.61-20.61V71.11A20.61,20.61,0,0,0,929.89,50.5" transform="translate(-50.5 -50.5)"/><path class="cls-1" d="M304.52,702.79h0m-.1,0h0m-.15,0h0m-.1,0h0m-13.05-2.66a119.53,119.53,0,0,0,13,2.66,119.53,119.53,0,0,1-13-2.66m-.28-.07.28.07-.28-.07m-.09,0,.07,0-.07,0m-.11,0,.07,0-.07,0m-.14,0,.08,0-.08,0m-.12,0,.05,0-.05,0m-.12,0,.05,0-.05,0m-.11,0h0m-.14,0h0m-.12,0h0m-13.62-4.64h0m-.14-.06h0m119.94-18.84h0a115.63,115.63,0,0,1-9.31,7.12c3.62-2.51,6.69-4.94,9.23-7.1A116.14,116.14,0,0,1,320.54,704H320a121.31,121.31,0,0,1-12.48-.82,116.43,116.43,0,0,1-62.6-27h0a156.46,156.46,0,0,0-79,106.86v0L321,783l154.06.1h0a156.51,156.51,0,0,0-79-106.88" transform="translate(-50.5 -50.5)"/><path class="cls-1" d="M900.49,803h-800A30,30,0,0,0,70.5,833v97.11h860V833a30,30,0,0,0-30-29.91" transform="translate(-50.5 -50.5)"/><polyline class="cls-1" points="20 782.45 20 782.45 20 879.56 530.95 879.56 749.37 879.56 880 879.56 20 879.56 20 782.45"/><path class="cls-1" d="M320.5,489.9a97,97,0,0,0-83.28,47.3l-.67,1.14h0l-.18.3v0l0,0v0l0,0,0,0v0l0,0v0a96.24,96.24,0,0,0-7.42,16.32h0l0,.06v0l0,.07h0l0,.08v0l0,0,0,.05v.1l0,0v0c-.17.47-.33,1-.48,1.44a96.6,96.6,0,0,0,37.78,109.7l-.14.06a96.81,96.81,0,0,0,109.75-.23l-.22-.08a97,97,0,0,0,37.86-108.42l-.33-1h0a96.42,96.42,0,0,0-9.08-20h0a97,97,0,0,0-83.27-47.3" transform="translate(-50.5 -50.5)"/><path class="cls-1" d="M228.63,555.74v0m0-.07v0m0-.08v0m0-.1,0,0,0,0m0-.1,0,.08,0-.08m0-.08,0,.07,0-.07m0-.08,0,.06,0-.06m7.42-16.33a96.24,96.24,0,0,0-7.42,16.32,96.24,96.24,0,0,1,7.42-16.32m0-.07,0,0,0,0m0-.07,0,0,0,0m0-.06v0m0-.06v0m.18-.3h0m167.22-1.14h0a96.42,96.42,0,0,1,9.08,20h0a96.42,96.42,0,0,0-9.08-20h0" transform="translate(-50.5 -50.5)"/><path class="cls-1" d="M396.05,676.2h0l-.05,0c-2.54,2.16-5.61,4.59-9.23,7.1a115.63,115.63,0,0,0,9.31-7.12h0M245,676.2h0l0,0h0a116.43,116.43,0,0,0,62.6,27h0l-3-.39h-.39a119.53,119.53,0,0,1-13-2.66h0l-.28-.07h0l-.07,0h0l-.07,0h-.06l-.08,0-.07,0-.05,0h-.07l-.05,0-.1,0h0l-.12,0h0l-.1,0h0a116.06,116.06,0,0,1-13.61-4.64h0l-.12-.05h0l-.13,0a119.21,119.21,0,0,1-31-18.8" transform="translate(-50.5 -50.5)"/><path class="cls-1" d="M680.5,489.9h-4a97,97,0,0,0-77.59,44.48h0l0,0,0,0,0,0-.05.07h0l0,.08h0c-.52.82-1,1.64-1.53,2.47h0a96.38,96.38,0,0,0-9.07,20h0a96.41,96.41,0,0,0-4.52,24.51h0a1.93,1.93,0,0,1,0,.24h0c0,.07,0,.15,0,.23h0c0,.07,0,.15,0,.23h0v.12h0v.12h0v.12h0a1.85,1.85,0,0,1,0,.23h0a1.93,1.93,0,0,1,0,.24h0v.23h0v.11h0v.23h0V584h0v.23h0v.48h0V585h0v.11h0v.12h0v.35h0v.23h0v1.09h0v.78h0v.38h0v.38h0v.38h0v.1h0v.27h0v.58h0v.08h0V590h0v.28h0v.09h0v.19h0v.09h0c0,.09,0,.19,0,.28h0v.1a2.72,2.72,0,0,0,0,.28h0v.09h0c0,.1,0,.19,0,.28h0v.19h0c0,.09,0,.19,0,.28h0A97,97,0,0,0,626,667.09h0a96.81,96.81,0,0,0,109.4-.25h0a99.78,99.78,0,0,0,8.63-6.68l0,0,0,0,0,0,0,0,0,0h0a96.82,96.82,0,0,0,33.19-68h0v-.16c0-.08,0-.14,0-.22h0v-.17c0-.07,0-.14,0-.21h0V591h0V586.9h0v-1.33h0v-.83h0v-.24h0v-.24h0v-.59h0v-.23h0v-.13c0-.07,0-.14,0-.22v-.13h0v-.24h0v-.11h0v-.12h0v-.11h0v-.12h0a1.93,1.93,0,0,0,0-.24h0c0-.08,0-.16,0-.24h0c0-.08,0-.16,0-.24h0c0-.12,0-.24,0-.35h0l0-.23h0a96.07,96.07,0,0,0-4.46-23.67h0a96.94,96.94,0,0,0-9.08-20h0c-.38-.64-.76-1.26-1.15-1.88l0,0,0,0A97,97,0,0,0,684.16,490H680.5" transform="translate(-50.5 -50.5)"/><path class="cls-2" d="M588.15,557.2H567.3a117.21,117.21,0,0,0,38.2,119.5A153.8,153.8,0,0,1,626,667.09a97,97,0,0,1-42.34-74.86h0c0-.09,0-.19,0-.28h0v-.19h0c0-.09,0-.19,0-.28h0v-.09h0a2.72,2.72,0,0,1,0-.28V591h0c0-.09,0-.19,0-.28h0v-.09h0v-.19h0v-.09h0V590h0v-.09h0v-.08h0v-.58h0V589h0v-.1h0v-.38h0v-.38h0v-.38h0v-.78h0v-1.09h0v-.23h0v-.35h0v-.12h0V585h0v-.24h0v-.13a1.7,1.7,0,0,0,0-.22v-.13h0V584h0v-.11h0v-.23h0v-.11h0v-.23h0a1.93,1.93,0,0,0,0-.24h0a1.85,1.85,0,0,0,0-.23h0v-.12h0v-.12h0v-.12h0c0-.08,0-.16,0-.23h0V582h0a1.93,1.93,0,0,0,0-.24h0a96,96,0,0,1,4.52-24.51" transform="translate(-50.5 -50.5)"/><path class="cls-1" d="M744,660.16a99.78,99.78,0,0,1-8.63,6.68h0a99.78,99.78,0,0,0,8.63-6.68m0,0,0,0,0,0m.06-.05,0,0,0,0m0,0h0M583.64,592.23A97,97,0,0,0,626,667.09h0a97,97,0,0,1-42.34-74.86m193.72-.2h0m0-.08v0m-193.74,0c0,.09,0,.19,0,.28,0-.09,0-.19,0-.28m193.74-.07v0m-193.75,0v0m0-.1v0m193.76-.1h0m0-.09v0m0-.08v0m-193.79,0c0,.09,0,.19,0,.28,0-.09,0-.18,0-.28m0-.1v0m193.8-.1h0m0-.09v0m0-.08v0m-193.82,0a2.72,2.72,0,0,0,0,.28,2.72,2.72,0,0,1,0-.28M777.41,591h0m-193.83,0v0m193.84-.19v0m0-.09v0m-193.85,0c0,.09,0,.19,0,.28,0-.09,0-.19,0-.28m193.86-.08v0m-193.86,0v0m193.86-.11v0m0-.08v0m-193.87,0v0m193.88-.08v0m-193.88,0v0m193.88-.07v0m-193.89,0v0m193.9-.2v0m-193.9,0v0m193.9-.09v0m-193.91,0v0m193.91-.07v0m-193.91,0v0m193.91-.08v0m-193.91,0v0m0-.11v0m193.93,0v0m0-.09v0m-193.93,0v0m0-.09v0m193.93,0v0m-193.93-.1v0m193.94,0v0m-194-.11v0m194,0v0m-194-.08v0m194,0v0m0-.09v0m-194,0v0m194-.09v0m-194,0v0m194-.1v0m-194,0v0m0-.08v0m194,0v0m0-.08v0m-194,0v0m194-.09v0m-194,0v0m194-.11v0m-194,0v0m194-.08v0m-194,0v0m194-.09v0m-194,0v0m0-.1v0m194,0v0m-194-.11v0m194,0v0m-194-.09v0m194,0v0m-194-.09v0m194,0v0m-194-.1v0m194,0v0m0-.11v0m-194,0v0m0-.09v0m194,0v0m-194-.09v0m194,0v0m-194-.08v0m194,0v0m0-.11v0m-194-.09v0m194,0v0m-194-.09v0m194,0v0m-194-.1v0m194,0v0m-194-.11h0v0m194,0v0h0m0-.11v0m-194,0v0m194-.13v0m-194,0v0m0-.11v0m194,0v0m0-.13v0m-194,0v0m0-.11v0m194,0v0m0-.12v0m-194,0v0m0-.12v0m194,0v0m0-.12v0m-194,0v0m194-.12v0m-194,0v0m194-.11v0m-194,0v0m194-.13v0m-194,0v0m194-.11v0m-194,0v0m194-.12v0m-194,0v0m194-.11v0m-194,0v0m194-.12v0m-194,0v0m194-.1v0m-194,0v0m194-.11v0m-194,0v0m194-.12v0m-194,0v0m194-.11v0m-194,0v0m194-.13v0m-193.94-.11a1.7,1.7,0,0,1,0,.22v-.22m193.93,0v0m0-.13v0m-193.93,0v0m193.93-.11v0m-193.92,0v0M777.45,584v0m-193.91,0v0m193.91-.11v0m-193.91,0v0m0-.12v0m193.9,0v0m0-.12v0m-193.89,0v0m193.89-.12v0m-193.89,0v0m193.88-.12v0m0-.12v0m-193.87,0v0M777.42,583c0,.08,0,.15,0,.22V583m-193.85,0a1.93,1.93,0,0,1,0,.24,1.93,1.93,0,0,0,0-.24m193.85-.12v0m0-.11v0m-193.83,0a1.85,1.85,0,0,1,0,.23,1.85,1.85,0,0,0,0-.23m193.83-.13v0m-193.82,0v0m193.81-.11v0m-193.81,0v0m193.8-.12v0m-193.79,0v0m193.79-.12v0m-193.78-.11c0,.07,0,.15,0,.23,0-.08,0-.16,0-.23m193.77,0v0M583.62,582v.23c0-.08,0-.16,0-.23m193.75,0a1.93,1.93,0,0,1,0,.24,1.93,1.93,0,0,0,0-.24m-193.74-.24a1.93,1.93,0,0,1,0,.24,1.93,1.93,0,0,0,0-.24m193.73,0c0,.08,0,.16,0,.24,0-.08,0-.16,0-.24m0-.24c0,.08,0,.16,0,.24,0-.08,0-.16,0-.24m0-.35c0,.11,0,.23,0,.35,0-.11,0-.24,0-.35m0-.24,0,.23,0-.23M588.15,557.2h0a96,96,0,0,0-4.52,24.51,96.41,96.41,0,0,1,4.52-24.51m184.7,0h0a96.07,96.07,0,0,1,4.46,23.67,96.07,96.07,0,0,0-4.46-23.67h0m-10.23-21.88c.39.62.77,1.24,1.15,1.88h0c-.38-.64-.76-1.26-1.15-1.88m0-.07,0,0,0,0m-163.82-.52c-.52.82-1,1.64-1.53,2.47h0c.5-.83,1-1.65,1.53-2.47m0-.08,0,.08,0-.08m.05-.07-.05.07.05-.07m0-.07,0,0,0,0m0,0h0M676.52,490h0m7.64,0h0m-7.32,0h0m7.09,0h0m-6.86,0h0m6.77,0h0m-6.68,0h0m6.61,0h0m-6.53,0h0m6.38,0h0m-6.24,0h0m6.14,0h0m-6,0h0m6,0h0m-5.88,0h0m5.74,0h0m-5.61,0h0m5.52,0h0m-5.43,0h0m5.35,0h0m-5.26,0h0m5.12,0h0m-5,0h0m4.9,0h0m-4.81,0h0m4.72,0h0m-4.62,0h0m4.49,0h0m-4.36,0h0m4.26,0h0m-4.17,0h0m4.08,0h0m-4,0h0m3.86,0h0m-3.74,0h0m3.64,0h0m-3.55,0h0m3.45,0h0m-3.35,0h0m3.23,0h0m-3.11,0h0m3,0h0m-2.93,0h0m2.83,0h0m-2.73,0h0m2.61,0h0m-2.49,0h0m2.4,0h0m-2.31,0h0m2.21,0h0m-2.11,0h0m2,0h0m-1.87,0h0m1.78,0h0m-1.69,0h0m1.59,0h0m-1.49,0h0m1.37,0h0m-1.25,0h0m1.16,0h0m-1.07,0h0m1,0h0m-.87,0h0m.75,0h0m-.63,0h0m.54,0h0m-.44,0h0m.34,0h0m-.25,0h0m.13,0h0m0,0h0" transform="translate(-50.5 -50.5)"/><path class="cls-1" d="M763.77,537.2h0a96.94,96.94,0,0,1,9.08,20h0a96.94,96.94,0,0,0-9.08-20h0" transform="translate(-50.5 -50.5)"/><polyline class="cls-2" points="735.95 486.7 713.27 486.7 713.27 486.7 735.95 486.7 735.95 486.7"/><path class="cls-1" d="M597.22,537.2h0a96.38,96.38,0,0,0-9.07,20h0a96.38,96.38,0,0,1,9.07-20" transform="translate(-50.5 -50.5)"/><path class="cls-1" d="M777.5,586.9a97,97,0,1,1-194,0,97,97,0,0,0,194,0" transform="translate(-50.5 -50.5)"/><text class="cls-3" transform="translate(101.55 383.77) scale(1 1.56)">W</text><text class="cls-4" transform="translate(253.47 383.77) scale(1 1.56)">E</text><text class="cls-3" transform="translate(321.37 383.77) scale(1 1.56)">W</text><text class="cls-4" transform="translate(473.29 383.77) scale(1 1.56)">A</text><text class="cls-4" transform="translate(550.2 383.77) scale(1 1.56)">TCH</text><path class="cls-1" d="M681.5,782.85l-155.06.09h0a156.53,156.53,0,0,1,79-106.87l0,0h0a118.84,118.84,0,0,0,75,27.81,116.17,116.17,0,0,0,76-27.8h0a156.46,156.46,0,0,1,79,106.88h0l-154.06-.09" transform="translate(-50.5 -50.5)"/><path class="cls-1" d="M413.18,558.23a97,97,0,0,1-37.86,108.42l.22.08a97,97,0,0,0,37.64-108.5" transform="translate(-50.5 -50.5)"/><path class="cls-1" d="M207.35,557h-.11l-.05.19h.11l0-.19" transform="translate(-50.5 -50.5)"/><path class="cls-1" d="M227.88,615.75A97.44,97.44,0,0,0,265.79,667l.14-.06a97.33,97.33,0,0,1-38.05-51.15" transform="translate(-50.5 -50.5)"/></svg>